<?xml version="1.0" encoding="UTF-8"?>
<svg width="17px" height="19px" viewBox="0 0 17 19" version="1.1" xmlns="http://www.w3.org/2000/svg" xmlns:xlink="http://www.w3.org/1999/xlink">
    <!-- Generator: Sketch 52.4 (67378) - http://www.bohemiancoding.com/sketch -->
    <title>calendar_icon</title>
    <desc>Created with Sketch.</desc>
    <defs>
        <path d="M1.28571429,17.2857143 L4.17857143,17.2857143 L4.17857143,14.3928571 L1.28571429,14.3928571 L1.28571429,17.2857143 Z M4.82142857,17.2857143 L8.03571429,17.2857143 L8.03571429,14.3928571 L4.82142857,14.3928571 L4.82142857,17.2857143 Z M1.28571429,13.75 L4.17857143,13.75 L4.17857143,10.5357143 L1.28571429,10.5357143 L1.28571429,13.75 Z M4.82142857,13.75 L8.03571429,13.75 L8.03571429,10.5357143 L4.82142857,10.5357143 L4.82142857,13.75 Z M1.28571429,9.89285714 L4.17857143,9.89285714 L4.17857143,7 L1.28571429,7 L1.28571429,9.89285714 Z M8.67857143,17.2857143 L11.8928571,17.2857143 L11.8928571,14.3928571 L8.67857143,14.3928571 L8.67857143,17.2857143 Z M4.82142857,9.89285714 L8.03571429,9.89285714 L8.03571429,7 L4.82142857,7 L4.82142857,9.89285714 Z M12.5357143,17.2857143 L15.4285714,17.2857143 L15.4285714,14.3928571 L12.5357143,14.3928571 L12.5357143,17.2857143 Z M8.67857143,13.75 L11.8928571,13.75 L11.8928571,10.5357143 L8.67857143,10.5357143 L8.67857143,13.75 Z M5.14285714,5.07142857 L5.14285714,2.17857143 C5.14285714,2.09151742 5.11104943,2.01618335 5.04743304,1.95256696 C4.98381665,1.88895057 4.90848258,1.85714286 4.82142857,1.85714286 L4.17857143,1.85714286 C4.09151742,1.85714286 4.01618335,1.88895057 3.95256696,1.95256696 C3.88895057,2.01618335 3.85714286,2.09151742 3.85714286,2.17857143 L3.85714286,5.07142857 C3.85714286,5.15848258 3.88895057,5.23381665 3.95256696,5.29743304 C4.01618335,5.36104943 4.09151742,5.39285714 4.17857143,5.39285714 L4.82142857,5.39285714 C4.90848258,5.39285714 4.98381665,5.36104943 5.04743304,5.29743304 C5.11104943,5.23381665 5.14285714,5.15848258 5.14285714,5.07142857 Z M12.5357143,13.75 L15.4285714,13.75 L15.4285714,10.5357143 L12.5357143,10.5357143 L12.5357143,13.75 Z M8.67857143,9.89285714 L11.8928571,9.89285714 L11.8928571,7 L8.67857143,7 L8.67857143,9.89285714 Z M12.5357143,9.89285714 L15.4285714,9.89285714 L15.4285714,7 L12.5357143,7 L12.5357143,9.89285714 Z M12.8571429,5.07142857 L12.8571429,2.17857143 C12.8571429,2.09151742 12.8253351,2.01618335 12.7617188,1.95256696 C12.6981024,1.88895057 12.6227683,1.85714286 12.5357143,1.85714286 L11.8928571,1.85714286 C11.8058031,1.85714286 11.7304691,1.88895057 11.6668527,1.95256696 C11.6032363,2.01618335 11.5714286,2.09151742 11.5714286,2.17857143 L11.5714286,5.07142857 C11.5714286,5.15848258 11.6032363,5.23381665 11.6668527,5.29743304 C11.7304691,5.36104943 11.8058031,5.39285714 11.8928571,5.39285714 L12.5357143,5.39285714 C12.6227683,5.39285714 12.6981024,5.36104943 12.7617188,5.29743304 C12.8253351,5.23381665 12.8571429,5.15848258 12.8571429,5.07142857 Z M16.7142857,4.42857143 L16.7142857,17.2857143 C16.7142857,17.6339303 16.5870548,17.9352666 16.3325893,18.1897321 C16.0781237,18.4441977 15.7767875,18.5714286 15.4285714,18.5714286 L1.28571429,18.5714286 C0.937498259,18.5714286 0.636161987,18.4441977 0.381696429,18.1897321 C0.127230871,17.9352666 0,17.6339303 0,17.2857143 L0,4.42857143 C0,4.0803554 0.127230871,3.77901913 0.381696429,3.52455357 C0.636161987,3.27008801 0.937498259,3.14285714 1.28571429,3.14285714 L2.57142857,3.14285714 L2.57142857,2.17857143 C2.57142857,1.73660493 2.72879307,1.3582605 3.04352679,1.04352679 C3.3582605,0.728793069 3.73660493,0.571428571 4.17857143,0.571428571 L4.82142857,0.571428571 C5.26339507,0.571428571 5.6417395,0.728793069 5.95647321,1.04352679 C6.27120693,1.3582605 6.42857143,1.73660493 6.42857143,2.17857143 L6.42857143,3.14285714 L10.2857143,3.14285714 L10.2857143,2.17857143 C10.2857143,1.73660493 10.4430788,1.3582605 10.7578125,1.04352679 C11.0725462,0.728793069 11.4508906,0.571428571 11.8928571,0.571428571 L12.5357143,0.571428571 C12.9776808,0.571428571 13.3560252,0.728793069 13.6707589,1.04352679 C13.9854926,1.3582605 14.1428571,1.73660493 14.1428571,2.17857143 L14.1428571,3.14285714 L15.4285714,3.14285714 C15.7767875,3.14285714 16.0781237,3.27008801 16.3325893,3.52455357 C16.5870548,3.77901913 16.7142857,4.0803554 16.7142857,4.42857143 Z" id="path-1"></path>
    </defs>
    <g id="Symbols" stroke="none" stroke-width="1" fill="none" fill-rule="evenodd">
        <g id="Comman/Icons/FontAwesome/Calender" transform="translate(-4.000000, -2.000000)">
            <g id="Comman/Swatches/Flat/Burgundy(#AE275F)" transform="translate(4.000000, 2.000000)">
                <mask id="mask-2" fill="white">
                    <use xlink:href="#path-1"></use>
                </mask>
                <use id="calendar_icon" fill="#AE275F" xlink:href="#path-1"></use>
            </g>
        </g>
    </g>
</svg>